# xmcd
#
# Track frame offsets:
#	150
#	14532
#	23845
#	37505
#	50180
#	65912
#	78270
#	91197
#	103315
#	117767
#	133110
#	149162
#	162075
#	176207
#	190492
#	201965
#	216002
#	226730
#	236552
#	249897
#	261447
#	271722
#
# Disc length: 3775 seconds
#
# Revision: 0
# Processed by: cddbd v1.4PL0 Copyright (c) Steve Scherf et al.
# Submitted via: audiograbber 1.81.00
#
DISCID=3d0ebd16
DTITLE=Julio Sosa - Todo Sosa...De FM Tango para Usted [CD2]
DYEAR=1991
DGENRE=Tango
TTITLE0=Cambalache
TTITLE1=Estas cosas de la vida
TTITLE2=Barrio pobre
TTITLE3=Guapo y varón
TTITLE4=Confesión
TTITLE5=Entre sueños
TTITLE6=Hoy es tarde
TTITLE7=Araca París
TTITLE8=Verdemar
TTITLE9=Enfundá la mandolina
TTITLE10=Qué solo estoy
TTITLE11=Siga el corso
TTITLE12=Che papusa oí
TTITLE13=Azabache
TTITLE14=Al compás del corazón
TTITLE15=Margo
TTITLE16=Nunca es tarde
TTITLE17=Toda mi vida
TTITLE18=La casita de mis viejos
TTITLE19=Tengo miedo
TTITLE20=Romántica
TTITLE21=La gayola
EXTD=
EXTT0=
EXTT1=
EXTT2=
EXTT3=
EXTT4=
EXTT5=
EXTT6=
EXTT7=
EXTT8=
EXTT9=
EXTT10=
EXTT11=
EXTT12=
EXTT13=
EXTT14=
EXTT15=
EXTT16=
EXTT17=
EXTT18=
EXTT19=
EXTT20=
EXTT21=
PLAYORDER=
